<mxfile host="Electron" agent="Mozilla/5.0 (Macintosh; Intel Mac OS X 10_15_7) AppleWebKit/537.36 (KHTML, like Gecko) draw.io/28.0.6 Chrome/138.0.7204.100 Electron/37.2.3 Safari/537.36" version="28.0.6">
  <diagram name="Page-1" id="YTExKbc98Xh5s81hGfYL">
    <mxGraphModel dx="2719" dy="2701" grid="1" gridSize="10" guides="1" tooltips="1" connect="1" arrows="1" fold="1" page="1" pageScale="1" pageWidth="827" pageHeight="1169" math="0" shadow="0">
      <root>
        <mxCell id="0" />
        <mxCell id="1" parent="0" />
        <mxCell id="33K_00qbtqyoLI7VchU2-3" value="" style="edgeStyle=orthogonalEdgeStyle;rounded=0;orthogonalLoop=1;jettySize=auto;html=1;" parent="1" source="33K_00qbtqyoLI7VchU2-1" target="33K_00qbtqyoLI7VchU2-2" edge="1">
          <mxGeometry relative="1" as="geometry" />
        </mxCell>
        <mxCell id="33K_00qbtqyoLI7VchU2-1" value="Start Simulation" style="rounded=1;whiteSpace=wrap;html=1;fontColor=#FFF2CC;" parent="1" vertex="1">
          <mxGeometry x="170" y="20" width="120" height="60" as="geometry" />
        </mxCell>
        <mxCell id="33K_00qbtqyoLI7VchU2-14" style="edgeStyle=orthogonalEdgeStyle;rounded=0;orthogonalLoop=1;jettySize=auto;html=1;entryX=0.5;entryY=0;entryDx=0;entryDy=0;" parent="1" source="33K_00qbtqyoLI7VchU2-2" target="33K_00qbtqyoLI7VchU2-4" edge="1">
          <mxGeometry relative="1" as="geometry" />
        </mxCell>
        <mxCell id="33K_00qbtqyoLI7VchU2-15" style="edgeStyle=orthogonalEdgeStyle;rounded=0;orthogonalLoop=1;jettySize=auto;html=1;" parent="1" source="33K_00qbtqyoLI7VchU2-2" target="33K_00qbtqyoLI7VchU2-5" edge="1">
          <mxGeometry relative="1" as="geometry" />
        </mxCell>
        <mxCell id="33K_00qbtqyoLI7VchU2-2" value="Agent Type" style="rhombus;whiteSpace=wrap;html=1;fontColor=#FFF2CC;" parent="1" vertex="1">
          <mxGeometry x="190" y="170" width="80" height="80" as="geometry" />
        </mxCell>
        <mxCell id="33K_00qbtqyoLI7VchU2-29" style="edgeStyle=orthogonalEdgeStyle;rounded=0;orthogonalLoop=1;jettySize=auto;html=1;" parent="1" source="33K_00qbtqyoLI7VchU2-4" target="33K_00qbtqyoLI7VchU2-6" edge="1">
          <mxGeometry relative="1" as="geometry" />
        </mxCell>
        <mxCell id="33K_00qbtqyoLI7VchU2-4" value="&lt;font&gt;Recieves Data on Local state. Ex: Where the neighbouring cell is or if there is a Pheromone dropped&lt;/font&gt;" style="rounded=1;whiteSpace=wrap;html=1;" parent="1" vertex="1">
          <mxGeometry x="-30" y="300" width="210" height="90" as="geometry" />
        </mxCell>
        <mxCell id="33K_00qbtqyoLI7VchU2-33" style="edgeStyle=orthogonalEdgeStyle;rounded=0;orthogonalLoop=1;jettySize=auto;html=1;entryX=0.5;entryY=0;entryDx=0;entryDy=0;" parent="1" source="33K_00qbtqyoLI7VchU2-5" target="33K_00qbtqyoLI7VchU2-7" edge="1">
          <mxGeometry relative="1" as="geometry" />
        </mxCell>
        <mxCell id="33K_00qbtqyoLI7VchU2-5" value="&lt;font&gt;Worker ants receive similar information as their counter parts here but the Queen agent has a broader perspective on position of worker ants.&amp;nbsp;&lt;/font&gt;" style="rounded=1;whiteSpace=wrap;html=1;" parent="1" vertex="1">
          <mxGeometry x="300" y="300" width="200" height="90" as="geometry" />
        </mxCell>
        <mxCell id="33K_00qbtqyoLI7VchU2-18" style="edgeStyle=orthogonalEdgeStyle;rounded=0;orthogonalLoop=1;jettySize=auto;html=1;entryX=0.5;entryY=0;entryDx=0;entryDy=0;" parent="1" source="33K_00qbtqyoLI7VchU2-6" target="33K_00qbtqyoLI7VchU2-8" edge="1">
          <mxGeometry relative="1" as="geometry" />
        </mxCell>
        <mxCell id="33K_00qbtqyoLI7VchU2-6" value="Action taken based on pre-defined instructions such as collect Food, stay away from Predators or send an Alert to other worker ants for Food/Predator" style="rounded=1;whiteSpace=wrap;html=1;" parent="1" vertex="1">
          <mxGeometry x="-30" y="480" width="210" height="90" as="geometry" />
        </mxCell>
        <mxCell id="33K_00qbtqyoLI7VchU2-19" style="edgeStyle=orthogonalEdgeStyle;rounded=0;orthogonalLoop=1;jettySize=auto;html=1;" parent="1" source="33K_00qbtqyoLI7VchU2-7" target="33K_00qbtqyoLI7VchU2-9" edge="1">
          <mxGeometry relative="1" as="geometry" />
        </mxCell>
        <mxCell id="33K_00qbtqyoLI7VchU2-7" value="&lt;span style=&quot;color: rgb(255, 255, 255); font-family: Helvetica; font-size: 12px; font-style: normal; font-variant-ligatures: normal; font-variant-caps: normal; font-weight: 400; letter-spacing: normal; orphans: 2; text-align: center; text-indent: 0px; text-transform: none; widows: 2; word-spacing: 0px; -webkit-text-stroke-width: 0px; white-space: normal; background-color: rgb(27, 29, 30); text-decoration-thickness: initial; text-decoration-style: initial; text-decoration-color: initial; display: inline !important; float: none;&quot;&gt;Action taken based on pre-defined instructions and Queen LLMs inputs or send an Alert to other worker ants for Food/Predator&lt;/span&gt;" style="rounded=1;whiteSpace=wrap;html=1;" parent="1" vertex="1">
          <mxGeometry x="300" y="480" width="200" height="90" as="geometry" />
        </mxCell>
        <mxCell id="33K_00qbtqyoLI7VchU2-42" value="" style="edgeStyle=orthogonalEdgeStyle;rounded=0;orthogonalLoop=1;jettySize=auto;html=1;" parent="1" source="33K_00qbtqyoLI7VchU2-8" target="33K_00qbtqyoLI7VchU2-34" edge="1">
          <mxGeometry relative="1" as="geometry">
            <Array as="points">
              <mxPoint x="-80" y="655" />
              <mxPoint x="-80" y="655" />
            </Array>
          </mxGeometry>
        </mxCell>
        <mxCell id="7ds82lJWPTizk5V2cXj--103" style="edgeStyle=orthogonalEdgeStyle;rounded=0;orthogonalLoop=1;jettySize=auto;html=1;entryX=0.5;entryY=0;entryDx=0;entryDy=0;" edge="1" parent="1" source="33K_00qbtqyoLI7VchU2-8" target="33K_00qbtqyoLI7VchU2-13">
          <mxGeometry relative="1" as="geometry" />
        </mxCell>
        <mxCell id="33K_00qbtqyoLI7VchU2-8" value="Updating the Pheromone Grid with Pheromones like: Trail, Alarm, Recruit, Decay" style="rounded=1;whiteSpace=wrap;html=1;" parent="1" vertex="1">
          <mxGeometry x="-30" y="610" width="210" height="90" as="geometry" />
        </mxCell>
        <mxCell id="33K_00qbtqyoLI7VchU2-43" value="" style="edgeStyle=orthogonalEdgeStyle;rounded=0;orthogonalLoop=1;jettySize=auto;html=1;" parent="1" source="33K_00qbtqyoLI7VchU2-9" target="33K_00qbtqyoLI7VchU2-34" edge="1">
          <mxGeometry relative="1" as="geometry">
            <Array as="points">
              <mxPoint x="30" y="735" />
              <mxPoint x="30" y="735" />
            </Array>
          </mxGeometry>
        </mxCell>
        <mxCell id="33K_00qbtqyoLI7VchU2-9" value="Record the action taken by the ant and store it as a transaction on the Public Ledger of Ethereum Sepolia Testnet" style="rounded=1;whiteSpace=wrap;html=1;" parent="1" vertex="1">
          <mxGeometry x="300" y="680" width="200" height="90" as="geometry" />
        </mxCell>
        <mxCell id="33K_00qbtqyoLI7VchU2-49" style="edgeStyle=orthogonalEdgeStyle;rounded=0;orthogonalLoop=1;jettySize=auto;html=1;exitX=0.5;exitY=1;exitDx=0;exitDy=0;entryX=1;entryY=0.5;entryDx=0;entryDy=0;" parent="1" source="33K_00qbtqyoLI7VchU2-11" target="33K_00qbtqyoLI7VchU2-45" edge="1">
          <mxGeometry relative="1" as="geometry" />
        </mxCell>
        <mxCell id="33K_00qbtqyoLI7VchU2-11" value="Analyzing Metrics: Foraging Efficiency, API calls used, Performance comparison with and without ants, Costs for the API calls.&amp;nbsp;" style="rounded=0;whiteSpace=wrap;html=1;" parent="1" vertex="1">
          <mxGeometry x="300" y="820" width="256" height="130" as="geometry" />
        </mxCell>
        <mxCell id="33K_00qbtqyoLI7VchU2-21" style="edgeStyle=orthogonalEdgeStyle;rounded=0;orthogonalLoop=1;jettySize=auto;html=1;entryX=0;entryY=0.5;entryDx=0;entryDy=0;" parent="1" source="33K_00qbtqyoLI7VchU2-13" target="33K_00qbtqyoLI7VchU2-11" edge="1">
          <mxGeometry relative="1" as="geometry" />
        </mxCell>
        <mxCell id="33K_00qbtqyoLI7VchU2-46" value="" style="edgeStyle=orthogonalEdgeStyle;rounded=0;orthogonalLoop=1;jettySize=auto;html=1;" parent="1" source="33K_00qbtqyoLI7VchU2-13" target="33K_00qbtqyoLI7VchU2-45" edge="1">
          <mxGeometry relative="1" as="geometry" />
        </mxCell>
        <mxCell id="33K_00qbtqyoLI7VchU2-13" value="Do you want to end the Simulation?" style="rhombus;whiteSpace=wrap;html=1;" parent="1" vertex="1">
          <mxGeometry y="805" width="150" height="160" as="geometry" />
        </mxCell>
        <mxCell id="33K_00qbtqyoLI7VchU2-22" value="Without Queen Agent" style="text;html=1;align=center;verticalAlign=middle;whiteSpace=wrap;rounded=0;" parent="1" vertex="1">
          <mxGeometry x="80" y="180" width="100" height="30" as="geometry" />
        </mxCell>
        <mxCell id="33K_00qbtqyoLI7VchU2-23" value="&lt;span style=&quot;color: rgb(255, 255, 255); font-family: Helvetica; font-size: 12px; font-style: normal; font-variant-ligatures: normal; font-variant-caps: normal; font-weight: 400; letter-spacing: normal; orphans: 2; text-align: center; text-indent: 0px; text-transform: none; widows: 2; word-spacing: 0px; -webkit-text-stroke-width: 0px; white-space: normal; background-color: rgb(27, 29, 30); text-decoration-thickness: initial; text-decoration-style: initial; text-decoration-color: initial; display: inline !important; float: none;&quot;&gt;With Queen Agent&lt;/span&gt;" style="text;whiteSpace=wrap;html=1;" parent="1" vertex="1">
          <mxGeometry x="300" y="175" width="100" height="40" as="geometry" />
        </mxCell>
        <mxCell id="33K_00qbtqyoLI7VchU2-34" value="" style="html=1;whiteSpace=wrap;shape=isoCube2;backgroundOutline=1;isoAngle=15;fillColor=#CCCCFF;labelBackgroundColor=default;gradientColor=none;fillStyle=dashed;" parent="1" vertex="1">
          <mxGeometry x="-790" y="275" width="670" height="790" as="geometry" />
        </mxCell>
        <mxCell id="33K_00qbtqyoLI7VchU2-37" value="&lt;font style=&quot;font-size: 24px;&quot;&gt;Ethereum Sepolia Testnet&amp;nbsp;&lt;/font&gt;" style="text;html=1;align=center;verticalAlign=middle;resizable=0;points=[];autosize=1;strokeColor=none;fillColor=none;fontColor=#CCCCFF;" parent="1" vertex="1">
          <mxGeometry x="-585" y="235" width="300" height="40" as="geometry" />
        </mxCell>
        <mxCell id="33K_00qbtqyoLI7VchU2-38" value="Shared Blueprint of the layout accessible to all ants worker or queen()" style="text;html=1;align=center;verticalAlign=middle;whiteSpace=wrap;rounded=0;fontColor=#CCCCFF;" parent="1" vertex="1">
          <mxGeometry x="80" y="705" width="210" height="40" as="geometry" />
        </mxCell>
        <mxCell id="33K_00qbtqyoLI7VchU2-39" value="Antelligence" style="text;strokeColor=none;fillColor=none;html=1;fontSize=24;fontStyle=1;verticalAlign=middle;align=center;" parent="1" vertex="1">
          <mxGeometry x="140" y="-70" width="180" height="70" as="geometry" />
        </mxCell>
        <mxCell id="33K_00qbtqyoLI7VchU2-44" value="Conitnue" style="text;html=1;align=center;verticalAlign=middle;resizable=0;points=[];autosize=1;strokeColor=none;fillColor=none;" parent="1" vertex="1">
          <mxGeometry x="170" y="860" width="70" height="30" as="geometry" />
        </mxCell>
        <mxCell id="33K_00qbtqyoLI7VchU2-45" value="The End.&amp;nbsp;" style="whiteSpace=wrap;html=1;" parent="1" vertex="1">
          <mxGeometry y="1060" width="150" height="60" as="geometry" />
        </mxCell>
        <mxCell id="33K_00qbtqyoLI7VchU2-48" style="edgeStyle=orthogonalEdgeStyle;rounded=0;orthogonalLoop=1;jettySize=auto;html=1;entryX=0.396;entryY=0.003;entryDx=0;entryDy=0;entryPerimeter=0;" parent="1" source="33K_00qbtqyoLI7VchU2-9" target="33K_00qbtqyoLI7VchU2-11" edge="1">
          <mxGeometry relative="1" as="geometry" />
        </mxCell>
        <mxCell id="7ds82lJWPTizk5V2cXj--11" style="edgeStyle=orthogonalEdgeStyle;rounded=0;orthogonalLoop=1;jettySize=auto;html=1;" edge="1" parent="1" source="7ds82lJWPTizk5V2cXj--2">
          <mxGeometry relative="1" as="geometry">
            <mxPoint x="-440.0000000000002" y="-565.0000000000002" as="targetPoint" />
          </mxGeometry>
        </mxCell>
        <mxCell id="7ds82lJWPTizk5V2cXj--2" value="Open Source Data Set for Tumours and medicating tumours." style="shape=cylinder3;whiteSpace=wrap;html=1;boundedLbl=1;backgroundOutline=1;size=15;" vertex="1" parent="1">
          <mxGeometry x="-730" y="-650" width="140" height="170" as="geometry" />
        </mxCell>
        <mxCell id="7ds82lJWPTizk5V2cXj--90" style="edgeStyle=orthogonalEdgeStyle;rounded=0;orthogonalLoop=1;jettySize=auto;html=1;" edge="1" parent="1" source="7ds82lJWPTizk5V2cXj--7">
          <mxGeometry relative="1" as="geometry">
            <mxPoint x="30" y="-565" as="targetPoint" />
          </mxGeometry>
        </mxCell>
        <mxCell id="7ds82lJWPTizk5V2cXj--7" value="&lt;li data-end=&quot;2896&quot; data-start=&quot;2749&quot;&gt;&lt;p data-end=&quot;2896&quot; data-start=&quot;2752&quot;&gt;&lt;strong data-end=&quot;2774&quot; data-start=&quot;2752&quot;&gt;Voxelize geometry:&lt;/strong&gt; Convert BraTS labels to a voxel grid; map tumor core/edema to initial &lt;strong data-end=&quot;2865&quot; data-start=&quot;2845&quot;&gt;cell populations&lt;/strong&gt; and &lt;strong data-end=&quot;2886&quot; data-start=&quot;2870&quot;&gt;ECM/porosity&lt;/strong&gt; fields.&lt;/p&gt;&lt;/li&gt;" style="rounded=0;whiteSpace=wrap;html=1;" vertex="1" parent="1">
          <mxGeometry x="-440" y="-606.25" width="250" height="82.5" as="geometry" />
        </mxCell>
        <mxCell id="7ds82lJWPTizk5V2cXj--95" value="" style="edgeStyle=orthogonalEdgeStyle;rounded=0;orthogonalLoop=1;jettySize=auto;html=1;" edge="1" parent="1" source="7ds82lJWPTizk5V2cXj--8" target="7ds82lJWPTizk5V2cXj--9">
          <mxGeometry relative="1" as="geometry" />
        </mxCell>
        <mxCell id="7ds82lJWPTizk5V2cXj--8" value="&lt;p data-pm-slice=&quot;0 0 []&quot;&gt;&lt;b&gt;Agents:&lt;/b&gt;&lt;span style=&quot;background-color: transparent; color: light-dark(rgb(0, 0, 0), rgb(255, 255, 255));&quot;&gt;Tumor cells with hypoxia-dependent phenotypes (PhysiCell built-ins).&lt;/span&gt;&lt;/p&gt;&lt;p&gt;PhysiBoSS 2.0 to plug intracellular Boolean logic for drug response inside each cell agent.&amp;nbsp;&lt;/p&gt;" style="rounded=0;whiteSpace=wrap;html=1;" vertex="1" parent="1">
          <mxGeometry x="-440" y="-440" width="260" height="100" as="geometry" />
        </mxCell>
        <mxCell id="7ds82lJWPTizk5V2cXj--9" value="To Process the situation, it uses antelligence logic.&amp;nbsp;&lt;div&gt;&lt;strong style=&quot;background-color: transparent; color: light-dark(rgb(0, 0, 0), rgb(255, 255, 255));&quot; data-end=&quot;3704&quot; data-start=&quot;3684&quot;&gt;Queen (planner):&lt;/strong&gt;&lt;span style=&quot;background-color: transparent; color: light-dark(rgb(0, 0, 0), rgb(255, 255, 255));&quot;&gt; ingests low-res global state (downsampled tumor heatmap + aggregate toxicity &amp;amp; kill metrics) every N steps; outputs &lt;/span&gt;&lt;strong style=&quot;background-color: transparent; color: light-dark(rgb(0, 0, 0), rgb(255, 255, 255));&quot; data-end=&quot;3837&quot; data-start=&quot;3821&quot;&gt;policy knobs&lt;/strong&gt;&lt;span style=&quot;background-color: transparent; color: light-dark(rgb(0, 0, 0), rgb(255, 255, 255));&quot;&gt; (e.g., bot swarm split ratios, secretion rates, exploration bias, drift toward vasculature)&lt;/span&gt;&lt;/div&gt;&lt;div&gt;&lt;strong style=&quot;background-color: transparent; color: light-dark(rgb(0, 0, 0), rgb(255, 255, 255));&quot; data-end=&quot;3957&quot; data-start=&quot;3938&quot;&gt;Workers (bots):&lt;/strong&gt;&lt;span style=&quot;background-color: transparent; color: light-dark(rgb(0, 0, 0), rgb(255, 255, 255));&quot;&gt; follow simple rules (chemotaxis + pheromones) with small stochasticity; Queen updates their parameters, not each action—keeps sim fast.&lt;/span&gt;&lt;/div&gt;" style="rounded=0;whiteSpace=wrap;html=1;" vertex="1" parent="1">
          <mxGeometry x="-500" y="-260" width="380" height="170" as="geometry" />
        </mxCell>
        <mxCell id="7ds82lJWPTizk5V2cXj--91" style="edgeStyle=orthogonalEdgeStyle;rounded=0;orthogonalLoop=1;jettySize=auto;html=1;entryX=1;entryY=0.25;entryDx=0;entryDy=0;" edge="1" parent="1" source="7ds82lJWPTizk5V2cXj--13" target="7ds82lJWPTizk5V2cXj--8">
          <mxGeometry relative="1" as="geometry" />
        </mxCell>
        <mxCell id="7ds82lJWPTizk5V2cXj--13" value="" style="rounded=1;whiteSpace=wrap;html=1;glass=0;fillStyle=auto;fillColor=none;" vertex="1" parent="1">
          <mxGeometry x="40" y="-830" width="416.25" height="670" as="geometry" />
        </mxCell>
        <mxCell id="7ds82lJWPTizk5V2cXj--10" value="Brain simulation" style="ellipse;shape=cloud;whiteSpace=wrap;html=1;fillColor=#fad9d5;strokeColor=#ae4132;fontColor=#000000;" vertex="1" parent="1">
          <mxGeometry x="150" y="-780" width="192.5" height="120" as="geometry" />
        </mxCell>
        <mxCell id="7ds82lJWPTizk5V2cXj--15" value="&lt;font style=&quot;font-size: 24px;&quot;&gt;&lt;b&gt;Microenvironment&lt;/b&gt;&lt;/font&gt;" style="text;html=1;align=center;verticalAlign=middle;whiteSpace=wrap;rounded=0;" vertex="1" parent="1">
          <mxGeometry x="150" y="-930" width="190" height="90" as="geometry" />
        </mxCell>
        <mxCell id="7ds82lJWPTizk5V2cXj--16" value="Bio VFM" style="text;html=1;align=center;verticalAlign=middle;whiteSpace=wrap;rounded=0;" vertex="1" parent="1">
          <mxGeometry x="216.25" y="-870" width="60" height="30" as="geometry" />
        </mxCell>
        <mxCell id="7ds82lJWPTizk5V2cXj--25" value="&lt;font style=&quot;&quot;&gt;Legend&lt;/font&gt;" style="rounded=0;whiteSpace=wrap;html=1;strokeWidth=1.5;arcSize=16;fillColor=none;perimeterSpacing=0;imageHeight=24;absoluteArcSize=1;points=[];connectable=0;container=0;align=center;verticalAlign=top;fontSize=12;fontStyle=1;spacingTop=5;spacingLeft=8;" vertex="1" parent="1">
          <mxGeometry x="-740" y="-950" width="230" height="190" as="geometry" />
        </mxCell>
        <mxCell id="7ds82lJWPTizk5V2cXj--26" value="" style="endArrow=none;html=1;strokeColor=#CCCCFF;bendable=1;rounded=1;endFill=0;endSize=4;strokeWidth=1.5;startSize=4;part=1;" edge="1" parent="7ds82lJWPTizk5V2cXj--25">
          <mxGeometry relative="1" as="geometry">
            <mxPoint x="19.166666666666668" y="86.36363636363633" as="sourcePoint" />
            <mxPoint x="102.22222222222221" y="86.36363636363633" as="targetPoint" />
          </mxGeometry>
        </mxCell>
        <mxCell id="7ds82lJWPTizk5V2cXj--27" value="BlockChain TxN" style="part=1;fillColor=none;strokeColor=none;align=left;fontSize=12;fontColor=#FFFFFF;" vertex="1" parent="7ds82lJWPTizk5V2cXj--25">
          <mxGeometry x="115" y="69.09" width="95" height="34.54" as="geometry" />
        </mxCell>
        <mxCell id="7ds82lJWPTizk5V2cXj--30" value="" style="edgeStyle=orthogonalEdgeStyle;rounded=0;orthogonalLoop=1;jettySize=auto;html=1;fontSize=18;strokeColor=#475E75;fontFamily=Helvetica;fontColor=default;targetPerimeterSpacing=15;endSize=4;startSize=4;endArrow=blockThin;endFill=1;strokeWidth=1.5;startArrow=none;startFill=0;" edge="1" parent="7ds82lJWPTizk5V2cXj--25">
          <mxGeometry relative="1" as="geometry">
            <mxPoint x="19.166666666666668" y="155.45454545454544" as="sourcePoint" />
            <mxPoint x="102.22222222222221" y="155.45454545454544" as="targetPoint" />
          </mxGeometry>
        </mxCell>
        <mxCell id="7ds82lJWPTizk5V2cXj--31" value="Data Flow" style="part=1;fillColor=none;strokeColor=none;align=left;fontSize=12;fontColor=#FFFFFF;" vertex="1" parent="7ds82lJWPTizk5V2cXj--25">
          <mxGeometry x="115" y="138.1775" width="55" height="34.544375" as="geometry" />
        </mxCell>
        <mxCell id="7ds82lJWPTizk5V2cXj--78" value="" style="image;aspect=fixed;html=1;points=[];align=center;fontSize=12;image=img/lib/azure2/ai_machine_learning/Bot_Services.svg;" vertex="1" parent="7ds82lJWPTizk5V2cXj--25">
          <mxGeometry x="40" y="106.875" width="30" height="30" as="geometry" />
        </mxCell>
        <mxCell id="7ds82lJWPTizk5V2cXj--79" value="Ant agent" style="text;html=1;align=center;verticalAlign=middle;whiteSpace=wrap;rounded=0;" vertex="1" parent="7ds82lJWPTizk5V2cXj--25">
          <mxGeometry x="110" y="106.875" width="60" height="35.625" as="geometry" />
        </mxCell>
        <mxCell id="7ds82lJWPTizk5V2cXj--83" value="" style="endArrow=none;dashed=1;html=1;dashPattern=1 3;strokeWidth=2;rounded=0;" edge="1" parent="7ds82lJWPTizk5V2cXj--25">
          <mxGeometry width="50" height="50" relative="1" as="geometry">
            <mxPoint x="20" y="60" as="sourcePoint" />
            <mxPoint x="100" y="60" as="targetPoint" />
          </mxGeometry>
        </mxCell>
        <mxCell id="7ds82lJWPTizk5V2cXj--106" value="Pheromone Mapping" style="text;html=1;align=center;verticalAlign=middle;whiteSpace=wrap;rounded=0;" vertex="1" parent="7ds82lJWPTizk5V2cXj--25">
          <mxGeometry x="110" y="40" width="120" height="30" as="geometry" />
        </mxCell>
        <mxCell id="7ds82lJWPTizk5V2cXj--58" value="Microenvironment Legend" style="shape=table;startSize=30;container=1;collapsible=0;childLayout=tableLayout;fontSize=16;align=left;verticalAlign=top;fillColor=none;strokeColor=none;fontColor=#ADADAD;fontStyle=1;spacingLeft=6;spacing=0;resizable=0;" vertex="1" parent="1">
          <mxGeometry x="530" y="-950" width="180" height="210" as="geometry" />
        </mxCell>
        <mxCell id="7ds82lJWPTizk5V2cXj--59" value="" style="shape=tableRow;horizontal=0;startSize=0;swimlaneHead=0;swimlaneBody=0;strokeColor=inherit;top=0;left=0;bottom=0;right=0;collapsible=0;dropTarget=0;fillColor=none;points=[[0,0.5],[1,0.5]];portConstraint=eastwest;fontSize=12;" vertex="1" parent="7ds82lJWPTizk5V2cXj--58">
          <mxGeometry y="30" width="180" height="30" as="geometry" />
        </mxCell>
        <mxCell id="7ds82lJWPTizk5V2cXj--60" value="Oxygen" style="shape=partialRectangle;html=1;whiteSpace=wrap;connectable=0;strokeColor=inherit;overflow=hidden;fillColor=#1E4074;top=0;left=0;bottom=0;right=0;pointerEvents=1;fontSize=12;align=left;fontColor=#FFFFFF;gradientColor=none;spacingLeft=10;spacingRight=4;" vertex="1" parent="7ds82lJWPTizk5V2cXj--59">
          <mxGeometry width="180" height="30" as="geometry">
            <mxRectangle width="180" height="30" as="alternateBounds" />
          </mxGeometry>
        </mxCell>
        <mxCell id="7ds82lJWPTizk5V2cXj--61" value="" style="shape=tableRow;horizontal=0;startSize=0;swimlaneHead=0;swimlaneBody=0;strokeColor=inherit;top=0;left=0;bottom=0;right=0;collapsible=0;dropTarget=0;fillColor=none;points=[[0,0.5],[1,0.5]];portConstraint=eastwest;fontSize=12;" vertex="1" parent="7ds82lJWPTizk5V2cXj--58">
          <mxGeometry y="60" width="180" height="30" as="geometry" />
        </mxCell>
        <mxCell id="7ds82lJWPTizk5V2cXj--62" value="Medication" style="shape=partialRectangle;html=1;whiteSpace=wrap;connectable=0;strokeColor=inherit;overflow=hidden;fillColor=#3162AF;top=0;left=0;bottom=0;right=0;pointerEvents=1;fontSize=12;align=left;fontColor=#FFFFFF;gradientColor=none;spacingLeft=10;spacingRight=4;" vertex="1" parent="7ds82lJWPTizk5V2cXj--61">
          <mxGeometry width="180" height="30" as="geometry">
            <mxRectangle width="180" height="30" as="alternateBounds" />
          </mxGeometry>
        </mxCell>
        <mxCell id="7ds82lJWPTizk5V2cXj--63" value="" style="shape=tableRow;horizontal=0;startSize=0;swimlaneHead=0;swimlaneBody=0;strokeColor=inherit;top=0;left=0;bottom=0;right=0;collapsible=0;dropTarget=0;fillColor=none;points=[[0,0.5],[1,0.5]];portConstraint=eastwest;fontSize=12;" vertex="1" parent="7ds82lJWPTizk5V2cXj--58">
          <mxGeometry y="90" width="180" height="30" as="geometry" />
        </mxCell>
        <mxCell id="7ds82lJWPTizk5V2cXj--64" value="Trail Pheromone" style="shape=partialRectangle;html=1;whiteSpace=wrap;connectable=0;strokeColor=inherit;overflow=hidden;fillColor=#52a2d8;top=0;left=0;bottom=0;right=0;pointerEvents=1;fontSize=12;align=left;fontColor=#FFFFFF;gradientColor=none;spacingLeft=10;spacingRight=4;" vertex="1" parent="7ds82lJWPTizk5V2cXj--63">
          <mxGeometry width="180" height="30" as="geometry">
            <mxRectangle width="180" height="30" as="alternateBounds" />
          </mxGeometry>
        </mxCell>
        <mxCell id="7ds82lJWPTizk5V2cXj--65" value="" style="shape=tableRow;horizontal=0;startSize=0;swimlaneHead=0;swimlaneBody=0;strokeColor=inherit;top=0;left=0;bottom=0;right=0;collapsible=0;dropTarget=0;fillColor=none;points=[[0,0.5],[1,0.5]];portConstraint=eastwest;fontSize=12;" vertex="1" parent="7ds82lJWPTizk5V2cXj--58">
          <mxGeometry y="120" width="180" height="30" as="geometry" />
        </mxCell>
        <mxCell id="7ds82lJWPTizk5V2cXj--66" value="Alarm Pheromone" style="shape=partialRectangle;html=1;whiteSpace=wrap;connectable=0;strokeColor=inherit;overflow=hidden;fillColor=#7dbef2;top=0;left=0;bottom=0;right=0;pointerEvents=1;fontSize=12;align=left;fontColor=#FFFFFF;gradientColor=none;spacingLeft=10;spacingRight=4;" vertex="1" parent="7ds82lJWPTizk5V2cXj--65">
          <mxGeometry width="180" height="30" as="geometry">
            <mxRectangle width="180" height="30" as="alternateBounds" />
          </mxGeometry>
        </mxCell>
        <mxCell id="7ds82lJWPTizk5V2cXj--67" value="" style="shape=tableRow;horizontal=0;startSize=0;swimlaneHead=0;swimlaneBody=0;strokeColor=inherit;top=0;left=0;bottom=0;right=0;collapsible=0;dropTarget=0;fillColor=none;points=[[0,0.5],[1,0.5]];portConstraint=eastwest;fontSize=12;" vertex="1" parent="7ds82lJWPTizk5V2cXj--58">
          <mxGeometry y="150" width="180" height="30" as="geometry" />
        </mxCell>
        <mxCell id="7ds82lJWPTizk5V2cXj--68" value="External Person" style="shape=partialRectangle;html=1;whiteSpace=wrap;connectable=0;strokeColor=inherit;overflow=hidden;fillColor=#6b6477;top=0;left=0;bottom=0;right=0;pointerEvents=1;fontSize=12;align=left;fontColor=#FFFFFF;gradientColor=none;spacingLeft=10;spacingRight=4;" vertex="1" parent="7ds82lJWPTizk5V2cXj--67">
          <mxGeometry width="180" height="30" as="geometry">
            <mxRectangle width="180" height="30" as="alternateBounds" />
          </mxGeometry>
        </mxCell>
        <mxCell id="7ds82lJWPTizk5V2cXj--69" value="" style="shape=tableRow;horizontal=0;startSize=0;swimlaneHead=0;swimlaneBody=0;strokeColor=inherit;top=0;left=0;bottom=0;right=0;collapsible=0;dropTarget=0;fillColor=none;points=[[0,0.5],[1,0.5]];portConstraint=eastwest;fontSize=12;" vertex="1" parent="7ds82lJWPTizk5V2cXj--58">
          <mxGeometry y="180" width="180" height="30" as="geometry" />
        </mxCell>
        <mxCell id="7ds82lJWPTizk5V2cXj--70" value="External Software System" style="shape=partialRectangle;html=1;whiteSpace=wrap;connectable=0;strokeColor=inherit;overflow=hidden;fillColor=#8b8496;top=0;left=0;bottom=0;right=0;pointerEvents=1;fontSize=12;align=left;fontColor=#FFFFFF;gradientColor=none;spacingLeft=10;spacingRight=4;" vertex="1" parent="7ds82lJWPTizk5V2cXj--69">
          <mxGeometry width="180" height="30" as="geometry">
            <mxRectangle width="180" height="30" as="alternateBounds" />
          </mxGeometry>
        </mxCell>
        <mxCell id="7ds82lJWPTizk5V2cXj--72" value="" style="image;aspect=fixed;html=1;points=[];align=center;fontSize=12;image=img/lib/azure2/ai_machine_learning/Bot_Services.svg;" vertex="1" parent="1">
          <mxGeometry x="170" y="-320" width="40" height="40" as="geometry" />
        </mxCell>
        <mxCell id="7ds82lJWPTizk5V2cXj--73" value="" style="image;aspect=fixed;html=1;points=[];align=center;fontSize=12;image=img/lib/azure2/ai_machine_learning/Bot_Services.svg;" vertex="1" parent="1">
          <mxGeometry x="260" y="-330" width="40" height="40" as="geometry" />
        </mxCell>
        <mxCell id="7ds82lJWPTizk5V2cXj--74" value="" style="image;aspect=fixed;html=1;points=[];align=center;fontSize=12;image=img/lib/azure2/ai_machine_learning/Bot_Services.svg;" vertex="1" parent="1">
          <mxGeometry x="290" y="-420" width="40" height="40" as="geometry" />
        </mxCell>
        <mxCell id="7ds82lJWPTizk5V2cXj--75" value="" style="image;aspect=fixed;html=1;points=[];align=center;fontSize=12;image=img/lib/azure2/ai_machine_learning/Bot_Services.svg;" vertex="1" parent="1">
          <mxGeometry x="350" y="-500" width="40" height="40" as="geometry" />
        </mxCell>
        <mxCell id="7ds82lJWPTizk5V2cXj--76" value="" style="image;aspect=fixed;html=1;points=[];align=center;fontSize=12;image=img/lib/azure2/ai_machine_learning/Bot_Services.svg;" vertex="1" parent="1">
          <mxGeometry x="370" y="-330" width="40" height="40" as="geometry" />
        </mxCell>
        <mxCell id="7ds82lJWPTizk5V2cXj--77" value="" style="image;aspect=fixed;html=1;points=[];align=center;fontSize=12;image=img/lib/azure2/ai_machine_learning/Bot_Services.svg;" vertex="1" parent="1">
          <mxGeometry x="200" y="-430" width="40" height="40" as="geometry" />
        </mxCell>
        <mxCell id="7ds82lJWPTizk5V2cXj--80" value="" style="edgeStyle=isometricEdgeStyle;endArrow=none;html=1;rounded=0;strokeColor=#1E4074;" edge="1" parent="1" target="7ds82lJWPTizk5V2cXj--85">
          <mxGeometry width="50" height="100" relative="1" as="geometry">
            <mxPoint x="180" y="-450" as="sourcePoint" />
            <mxPoint x="210" y="-500" as="targetPoint" />
          </mxGeometry>
        </mxCell>
        <mxCell id="7ds82lJWPTizk5V2cXj--81" style="edgeStyle=orthogonalEdgeStyle;rounded=0;orthogonalLoop=1;jettySize=auto;html=1;entryX=0.336;entryY=0.567;entryDx=0;entryDy=0;entryPerimeter=0;strokeColor=#1E4074;" edge="1" parent="1" source="7ds82lJWPTizk5V2cXj--77" target="7ds82lJWPTizk5V2cXj--13">
          <mxGeometry relative="1" as="geometry" />
        </mxCell>
        <mxCell id="7ds82lJWPTizk5V2cXj--84" value="" style="endArrow=none;dashed=1;html=1;rounded=0;strokeColor=#52A2D8;" edge="1" parent="1" target="7ds82lJWPTizk5V2cXj--75">
          <mxGeometry width="50" height="50" relative="1" as="geometry">
            <mxPoint x="290" y="-670" as="sourcePoint" />
            <mxPoint x="440" y="-630" as="targetPoint" />
          </mxGeometry>
        </mxCell>
        <mxCell id="7ds82lJWPTizk5V2cXj--85" value="Oxygen" style="shape=cube;whiteSpace=wrap;html=1;boundedLbl=1;backgroundOutline=1;darkOpacity=0.05;darkOpacity2=0.1;fillColor=#1E4074;" vertex="1" parent="1">
          <mxGeometry x="60" y="-560" width="120" height="80" as="geometry" />
        </mxCell>
        <mxCell id="7ds82lJWPTizk5V2cXj--86" value="" style="endArrow=none;dashed=1;html=1;dashPattern=1 3;strokeWidth=2;rounded=0;strokeColor=#52A2D8;" edge="1" parent="1" source="7ds82lJWPTizk5V2cXj--85">
          <mxGeometry width="50" height="50" relative="1" as="geometry">
            <mxPoint x="130" y="-270" as="sourcePoint" />
            <mxPoint x="180" y="-320" as="targetPoint" />
          </mxGeometry>
        </mxCell>
        <mxCell id="7ds82lJWPTizk5V2cXj--87" value="&lt;p data-pm-slice=&quot;1 1 []&quot;&gt;Nanobots as motile agents with chemotaxis toward (i) drug-need gradients (low O₂ / high tumor density) and (ii) pheromone trails from peers; bots secrete trail, emit alarm near obstacles or non-response zones.&lt;/p&gt;" style="text;html=1;align=center;verticalAlign=middle;whiteSpace=wrap;rounded=0;" vertex="1" parent="1">
          <mxGeometry x="225" y="-280" width="215" height="100" as="geometry" />
        </mxCell>
        <mxCell id="7ds82lJWPTizk5V2cXj--88" style="edgeStyle=orthogonalEdgeStyle;rounded=0;orthogonalLoop=1;jettySize=auto;html=1;exitX=0.5;exitY=1;exitDx=0;exitDy=0;" edge="1" parent="1" source="7ds82lJWPTizk5V2cXj--7" target="7ds82lJWPTizk5V2cXj--7">
          <mxGeometry relative="1" as="geometry" />
        </mxCell>
        <mxCell id="7ds82lJWPTizk5V2cXj--92" style="edgeStyle=orthogonalEdgeStyle;rounded=0;orthogonalLoop=1;jettySize=auto;html=1;exitX=0;exitY=0.75;exitDx=0;exitDy=0;entryX=0.986;entryY=0.622;entryDx=0;entryDy=0;entryPerimeter=0;" edge="1" parent="1" source="7ds82lJWPTizk5V2cXj--13" target="7ds82lJWPTizk5V2cXj--8">
          <mxGeometry relative="1" as="geometry" />
        </mxCell>
        <mxCell id="7ds82lJWPTizk5V2cXj--93" value="Metrics from the envronment&amp;nbsp;" style="text;html=1;align=center;verticalAlign=middle;resizable=0;points=[];autosize=1;strokeColor=none;fillColor=none;" vertex="1" parent="1">
          <mxGeometry x="-160" y="-410" width="180" height="30" as="geometry" />
        </mxCell>
        <mxCell id="7ds82lJWPTizk5V2cXj--98" value="" style="shape=flexArrow;endArrow=classic;html=1;rounded=0;entryX=0;entryY=0.5;entryDx=0;entryDy=0;" edge="1" parent="1" target="33K_00qbtqyoLI7VchU2-1">
          <mxGeometry width="50" height="50" relative="1" as="geometry">
            <mxPoint x="-120" y="-90" as="sourcePoint" />
            <mxPoint x="-276" y="106" as="targetPoint" />
          </mxGeometry>
        </mxCell>
        <mxCell id="7ds82lJWPTizk5V2cXj--100" style="edgeStyle=orthogonalEdgeStyle;rounded=0;orthogonalLoop=1;jettySize=auto;html=1;exitX=0.5;exitY=1;exitDx=0;exitDy=0;" edge="1" parent="1" source="33K_00qbtqyoLI7VchU2-38" target="33K_00qbtqyoLI7VchU2-38">
          <mxGeometry relative="1" as="geometry" />
        </mxCell>
        <mxCell id="7ds82lJWPTizk5V2cXj--107" value="&lt;p style=&quot;margin: 0px; font-variant-numeric: normal; font-variant-east-asian: normal; font-variant-alternates: normal; font-size-adjust: none; font-kerning: auto; font-optical-sizing: auto; font-feature-settings: normal; font-variation-settings: normal; font-variant-position: normal; font-variant-emoji: normal; font-stretch: normal; font-size: 13px; line-height: normal; font-family: &amp;quot;Helvetica Neue&amp;quot;; text-align: start;&quot; class=&quot;p1&quot;&gt;&lt;font style=&quot;color: rgb(255, 255, 255);&quot;&gt;What our agents should do:&amp;nbsp;&lt;/font&gt;&lt;/p&gt;&lt;p style=&quot;margin: 0px; font-variant-numeric: normal; font-variant-east-asian: normal; font-variant-alternates: normal; font-size-adjust: none; font-kerning: auto; font-optical-sizing: auto; font-feature-settings: normal; font-variation-settings: normal; font-variant-position: normal; font-variant-emoji: normal; font-stretch: normal; font-size: 13px; line-height: normal; font-family: &amp;quot;Helvetica Neue&amp;quot;; text-align: start; color: rgb(0, 0, 0);&quot; class=&quot;p1&quot;&gt;&lt;font style=&quot;color: rgb(255, 255, 255);&quot;&gt;Run N PhysiCell episodes with a proposed policy (from Queen LLM).&lt;/font&gt;&lt;/p&gt;&lt;p style=&quot;margin: 0px; font-variant-numeric: normal; font-variant-east-asian: normal; font-variant-alternates: normal; font-size-adjust: none; font-kerning: auto; font-optical-sizing: auto; font-feature-settings: normal; font-variation-settings: normal; font-variant-position: normal; font-variant-emoji: normal; font-stretch: normal; font-size: 13px; line-height: normal; font-family: &amp;quot;Helvetica Neue&amp;quot;; text-align: start; color: rgb(0, 0, 0);&quot; class=&quot;p1&quot;&gt;&lt;font style=&quot;color: rgb(255, 255, 255);&quot;&gt;Compress logs + metrics; pin to&amp;nbsp;&lt;b&gt;IPFS&lt;/b&gt;&amp;nbsp;(get CID).&lt;/font&gt;&lt;/p&gt;&lt;p style=&quot;margin: 0px; font-variant-numeric: normal; font-variant-east-asian: normal; font-variant-alternates: normal; font-size-adjust: none; font-kerning: auto; font-optical-sizing: auto; font-feature-settings: normal; font-variation-settings: normal; font-variant-position: normal; font-variant-emoji: normal; font-stretch: normal; font-size: 13px; line-height: normal; font-family: &amp;quot;Helvetica Neue&amp;quot;; color: rgb(0, 0, 0);&quot; class=&quot;p2&quot;&gt;&lt;font style=&quot;color: rgb(255, 255, 255);&quot;&gt;submitExperience&amp;nbsp;on Sepolia with the CID + hashes; request EAS attestations from designated validators or from an auto-validator bot that re-runs a&amp;nbsp;&lt;i&gt;subset&lt;/i&gt;&amp;nbsp;(reproducibility check).&lt;/font&gt;&lt;/p&gt;&lt;p style=&quot;margin: 0px; font-variant-numeric: normal; font-variant-east-asian: normal; font-variant-alternates: normal; font-size-adjust: none; font-kerning: auto; font-optical-sizing: auto; font-feature-settings: normal; font-variation-settings: normal; font-variant-position: normal; font-variant-emoji: normal; font-stretch: normal; font-size: 13px; line-height: normal; font-family: &amp;quot;Helvetica Neue&amp;quot;; color: rgb(0, 0, 0);&quot; class=&quot;p2&quot;&gt;&lt;font style=&quot;color: rgb(255, 255, 255);&quot;&gt;Queen LLM&amp;nbsp;&lt;b style=&quot;&quot;&gt;queries the contract&lt;/b&gt;&amp;nbsp;(via The Graph or direct RPC) to fetch top-attested runs relevant to the current patient geometry; updates policy priors.&lt;/font&gt;&lt;/p&gt;" style="text;html=1;align=center;verticalAlign=middle;whiteSpace=wrap;rounded=0;" vertex="1" parent="1">
          <mxGeometry x="-420" y="610" width="260" height="262.5" as="geometry" />
        </mxCell>
        <mxCell id="7ds82lJWPTizk5V2cXj--108" value="&lt;font style=&quot;font-size: 14px;&quot;&gt;&lt;span style=&quot;&quot; data-end=&quot;5745&quot; data-start=&quot;5731&quot;&gt;&lt;b&gt;Principle&lt;/b&gt;&lt;/span&gt;&lt;strong style=&quot;&quot; data-end=&quot;5745&quot; data-start=&quot;5731&quot;&gt;:&lt;/strong&gt; training stays off-chain; &lt;strong style=&quot;&quot; data-end=&quot;5812&quot; data-start=&quot;5772&quot;&gt;provenance, reputation, and pointers&lt;/strong&gt; go on-chain.&lt;/font&gt;" style="text;html=1;align=center;verticalAlign=middle;whiteSpace=wrap;rounded=0;" vertex="1" parent="1">
          <mxGeometry x="-720" y="410" width="560" height="40" as="geometry" />
        </mxCell>
        <mxCell id="7ds82lJWPTizk5V2cXj--109" value="&lt;font style=&quot;color: rgb(204, 204, 255);&quot;&gt;Changes to make on blockchain side-&amp;nbsp;&lt;b style=&quot;font-family: &amp;quot;Helvetica Neue&amp;quot;; font-size: 13px; text-align: start; background-color: transparent; color: rgb(0, 0, 0);&quot;&gt;ExperienceRegistry.sol&lt;/b&gt;&lt;/font&gt;&lt;ul style=&quot;font-size: medium; text-align: start; color: rgb(0, 0, 0);&quot; class=&quot;ul1&quot;&gt;&lt;li style=&quot;margin: 0px; font-variant-numeric: normal; font-variant-east-asian: normal; font-variant-alternates: normal; font-size-adjust: none; font-kerning: auto; font-optical-sizing: auto; font-feature-settings: normal; font-variation-settings: normal; font-variant-position: normal; font-variant-emoji: normal; font-stretch: normal; font-size: 13px; line-height: normal; font-family: &amp;quot;Helvetica Neue&amp;quot;;&quot; class=&quot;li1&quot;&gt;&lt;font style=&quot;color: rgb(204, 204, 255);&quot;&gt;&lt;span style=&quot;font-variant-numeric: normal; font-variant-east-asian: normal; font-variant-alternates: normal; font-size-adjust: none; font-kerning: auto; font-optical-sizing: auto; font-feature-settings: normal; font-variation-settings: normal; font-variant-position: normal; font-variant-emoji: normal; font-stretch: normal; font-size: 9px; line-height: normal; font-family: Menlo;&quot; class=&quot;s1&quot;&gt;&lt;/span&gt;submitExperience(bytes32 runHash, string ipfsCid, bytes32 dataHash, uint256 score) → emits ExperienceSubmitted(runHash, ipfsCid, dataHash, score, msg.sender)&lt;/font&gt;&lt;/li&gt;&lt;li style=&quot;margin: 0px; font-variant-numeric: normal; font-variant-east-asian: normal; font-variant-alternates: normal; font-size-adjust: none; font-kerning: auto; font-optical-sizing: auto; font-feature-settings: normal; font-variation-settings: normal; font-variant-position: normal; font-variant-emoji: normal; font-stretch: normal; font-size: 13px; line-height: normal; font-family: &amp;quot;Helvetica Neue&amp;quot;;&quot; class=&quot;li1&quot;&gt;&lt;font style=&quot;color: rgb(204, 204, 255);&quot;&gt;&lt;span style=&quot;font-variant-numeric: normal; font-variant-east-asian: normal; font-variant-alternates: normal; font-size-adjust: none; font-kerning: auto; font-optical-sizing: auto; font-feature-settings: normal; font-variation-settings: normal; font-variant-position: normal; font-variant-emoji: normal; font-stretch: normal; font-size: 9px; line-height: normal; font-family: Menlo;&quot; class=&quot;s1&quot;&gt;&lt;/span&gt;Store only hashes + CIDs (BraTS-derived data is de-identified, but still keep payloads off-chain).&lt;span class=&quot;Apple-converted-space&quot;&gt;&amp;nbsp;&lt;/span&gt;&lt;/font&gt;&lt;/li&gt;&lt;/ul&gt;&lt;p style=&quot;margin: 0px; font-variant-numeric: normal; font-variant-east-asian: normal; font-variant-alternates: normal; font-size-adjust: none; font-kerning: auto; font-optical-sizing: auto; font-feature-settings: normal; font-variation-settings: normal; font-variant-position: normal; font-variant-emoji: normal; font-stretch: normal; font-size: 13px; line-height: normal; font-family: &amp;quot;Helvetica Neue&amp;quot;; text-align: start; color: rgb(0, 0, 0);&quot; class=&quot;p1&quot;&gt;&lt;font style=&quot;color: rgb(204, 204, 255);&quot;&gt;&lt;b&gt;Reputation/Staking.sol&lt;/b&gt;&lt;b&gt;&lt;/b&gt;&lt;/font&gt;&lt;/p&gt;&lt;ul style=&quot;font-size: medium; text-align: start; color: rgb(0, 0, 0);&quot; class=&quot;ul1&quot;&gt;&lt;li style=&quot;margin: 0px; font-variant-numeric: normal; font-variant-east-asian: normal; font-variant-alternates: normal; font-size-adjust: none; font-kerning: auto; font-optical-sizing: auto; font-feature-settings: normal; font-variation-settings: normal; font-variant-position: normal; font-variant-emoji: normal; font-stretch: normal; font-size: 13px; line-height: normal; font-family: &amp;quot;Helvetica Neue&amp;quot;;&quot; class=&quot;li1&quot;&gt;&lt;font style=&quot;color: rgb(204, 204, 255);&quot;&gt;&lt;span style=&quot;font-variant-numeric: normal; font-variant-east-asian: normal; font-variant-alternates: normal; font-size-adjust: none; font-kerning: auto; font-optical-sizing: auto; font-feature-settings: normal; font-variation-settings: normal; font-variant-position: normal; font-variant-emoji: normal; font-stretch: normal; font-size: 9px; line-height: normal; font-family: Menlo;&quot; class=&quot;s1&quot;&gt;&lt;/span&gt;Contributors stake; evaluators (or automated validators) can &lt;b&gt;attest&lt;/b&gt; quality via &lt;b&gt;EAS&lt;/b&gt;; low-quality or unverifiable results can be &lt;b&gt;slashed&lt;/b&gt;.&lt;/font&gt;&lt;/li&gt;&lt;/ul&gt;&lt;p style=&quot;margin: 0px; font-variant-numeric: normal; font-variant-east-asian: normal; font-variant-alternates: normal; font-size-adjust: none; font-kerning: auto; font-optical-sizing: auto; font-feature-settings: normal; font-variation-settings: normal; font-variant-position: normal; font-variant-emoji: normal; font-stretch: normal; font-size: 13px; line-height: normal; font-family: &amp;quot;Helvetica Neue&amp;quot;; text-align: start; color: rgb(0, 0, 0);&quot; class=&quot;p1&quot;&gt;&lt;font style=&quot;color: rgb(204, 204, 255);&quot;&gt;&lt;b&gt;Schemas (EAS):&lt;/b&gt;&lt;b&gt;&lt;/b&gt;&lt;/font&gt;&lt;/p&gt;&lt;ul style=&quot;font-size: medium; text-align: start; color: rgb(0, 0, 0);&quot; class=&quot;ul1&quot;&gt;&lt;li style=&quot;margin: 0px; font-variant-numeric: normal; font-variant-east-asian: normal; font-variant-alternates: normal; font-size-adjust: none; font-kerning: auto; font-optical-sizing: auto; font-feature-settings: normal; font-variation-settings: normal; font-variant-position: normal; font-variant-emoji: normal; font-stretch: normal; font-size: 13px; line-height: normal; font-family: &amp;quot;Helvetica Neue&amp;quot;;&quot; class=&quot;li1&quot;&gt;&lt;font style=&quot;color: rgb(204, 204, 255);&quot;&gt;&lt;span style=&quot;font-variant-numeric: normal; font-variant-east-asian: normal; font-variant-alternates: normal; font-size-adjust: none; font-kerning: auto; font-optical-sizing: auto; font-feature-settings: normal; font-variation-settings: normal; font-variant-position: normal; font-variant-emoji: normal; font-stretch: normal; font-size: 9px; line-height: normal; font-family: Menlo;&quot; class=&quot;s1&quot;&gt;&lt;/span&gt;SimulationResult(hash runHash, string model, string dataset, uint32 seeds, float meanKill, float tox, string cid)&lt;/font&gt;&lt;/li&gt;&lt;/ul&gt;&lt;p style=&quot;margin: 0px; font-variant-numeric: normal; font-variant-east-asian: normal; font-variant-alternates: normal; font-size-adjust: none; font-kerning: auto; font-optical-sizing: auto; font-feature-settings: normal; font-variation-settings: normal; font-variant-position: normal; font-variant-emoji: normal; font-stretch: normal; font-size: 13px; line-height: normal; font-family: &amp;quot;Helvetica Neue&amp;quot;; text-align: start; color: rgb(0, 0, 0);&quot; class=&quot;p1&quot;&gt;&lt;font style=&quot;color: rgb(204, 204, 255);&quot;&gt;&lt;span style=&quot;font-variant-numeric: normal; font-variant-east-asian: normal; font-variant-alternates: normal; font-size-adjust: none; font-kerning: auto; font-optical-sizing: auto; font-feature-settings: normal; font-variation-settings: normal; font-variant-position: normal; font-variant-emoji: normal; font-stretch: normal; font-size: 9px; line-height: normal; font-family: Menlo;&quot; class=&quot;s1&quot;&gt;&lt;span style=&quot;white-space: pre;&quot; class=&quot;Apple-tab-span&quot;&gt;&#x9;&lt;/span&gt;•&lt;span style=&quot;white-space: pre;&quot; class=&quot;Apple-tab-span&quot;&gt;&#x9;&lt;/span&gt;&lt;span style=&quot;white-space: pre;&quot; class=&quot;Apple-tab-span&quot;&gt;&#x9;&lt;/span&gt;•&lt;span style=&quot;white-space: pre;&quot; class=&quot;Apple-tab-span&quot;&gt;&#x9;&lt;/span&gt;&lt;/span&gt;Evaluation(hash runHash, float reproducibilityScore, string notes)&lt;br&gt;Attestations written on Sepolia via EAS SDK; the contract trusts only results with adequate attestations/stake.&lt;/font&gt;&lt;/p&gt;" style="text;html=1;align=center;verticalAlign=middle;whiteSpace=wrap;rounded=0;" vertex="1" parent="1">
          <mxGeometry x="-810" y="560" width="340" height="420" as="geometry" />
        </mxCell>
      </root>
    </mxGraphModel>
  </diagram>
</mxfile>
